<?xml version="1.0" encoding="utf-8"?>
<!-- Generator: Adobe Illustrator 21.0.0, SVG Export Plug-In . SVG Version: 6.00 Build 0)  -->
<svg version="1.0" id="Capa_1" xmlns="http://www.w3.org/2000/svg" xmlns:xlink="http://www.w3.org/1999/xlink" x="0px" y="0px"
	 viewBox="0 0 139 53" style="enable-background:new 0 0 139 53;" xml:space="preserve">
<style type="text/css">
	.st0{fill:#FFFFFF;}
</style>
<g id="XMLID_1770_">
	<g>
		<g id="XMLID_59_">
			<polygon id="XMLID_66_" class="st0" points="60.9,18.1 57.7,15 54.5,18.1 57.7,21.3 			"/>
			<polygon id="XMLID_65_" class="st0" points="68.7,18.1 65.5,15 62.3,18.1 65.5,21.3 			"/>
			<g id="XMLID_60_">
				<path id="XMLID_62_" class="st0" d="M135.4,35.2h-3c-1,0-1.6-0.1-1.8-0.4c-0.2-0.3-0.3-0.9-0.3-2v-14c-3.9,0-7.1,0.4-9.8,1.2
					c-2.7,0.8-4.8,1.7-6.5,2.9c-1.7,1.2-2.9,2.5-3.7,4c-0.8,1.5-1.2,3-1.3,4.4c-0.1,1.3,0.3,2.6,0.9,3.8h-4.1h-1.7h-4.7v1.9
					c0,0.8,0,1.6-0.1,2.4c-0.1,0.8-0.2,1.6-0.5,2.3c-0.3,0.7-0.7,1.3-1.2,1.8c-0.6,0.5-1.3,0.7-2.3,0.7c-1.4,0-2.4-0.6-2.9-1.9
					c-0.5-1.3-0.8-2.6-0.9-4.1v-2.5l0.1-12.4l8.8,0.1v-4.8l-8.8-0.1V3.9h-4.7c0,2.2,0,4.7,0,7.4c0,2.7,0,5.5,0,8.3
					c0,2.8,0,5.6,0,8.3c0,2.7,0,5.2,0,7.4h-7.1h-1.5h-4.7c0,0.7,0,1.4-0.1,2c-0.1,0.7-0.2,1.4-0.4,2.2c-0.6,2.3-1.6,4-3,5.1
					c-1.4,1.1-3,1.6-4.6,1.6c-1.6,0-3.2-0.6-4.6-1.7c-1.5-1.1-2.5-2.6-3.2-4.6h4.5c1,0,2.1-0.2,3.2-0.6c1.1-0.4,2.1-1,2.9-1.9
					c0.8-0.9,1.3-1.9,1.7-3.2c0.3-1.3,0.2-2.9-0.3-4.7c-0.5-1.5-1.2-2.8-2.2-3.8c-1-1-2.2-1.7-3.5-2c-1.3-0.4-2.6-0.4-4-0.2
					c-1.4,0.3-2.6,0.9-3.7,1.8c-1.1,1-2,2.3-2.7,3.9c-0.7,1.6-1.1,3.6-1.1,6h-1.8h-1.8h-1.6c0,0.8,0,2,0,2.5c0,0.5,0.1,1.4,0.2,2.2
					h1.3h1.9h2.2c0.5,2.2,1.3,4.1,2.4,5.8c1.2,1.6,2.6,2.9,4.2,3.8c1.6,0.9,3.4,1.4,5.4,1.4c2,0.1,4-0.3,6.2-1.2
					c2.1-0.9,3.7-2.2,4.6-4c1-1.8,1.7-3.7,2.1-5.8h0.4h1.5h7.1h0.1c0.1,1.2,0.3,2.3,0.7,3.4c0.3,1.1,0.8,2,1.5,2.9
					c0.7,0.8,1.5,1.5,2.5,2c1,0.5,2.3,0.8,3.8,0.8c1.6,0,2.9-0.2,4-0.7c1.1-0.5,1.9-1.1,2.5-2c0.6-0.8,1.1-1.8,1.4-2.9
					c0.3-1.1,0.5-2.2,0.6-3.5h0.3h1.6h14.8v-4.7h-2.8c-0.9,0-1.7-0.1-2.4-0.4c-0.7-0.3-1.1-1.1-1.2-2.4c0-1.4,0.3-2.6,1-3.8
					c0.7-1.1,1.5-2.1,2.6-2.9c1.1-0.8,2.3-1.4,3.6-1.8c1.4-0.4,2.7-0.6,4.1-0.6v11.9h0c0,2.6,2.1,4.7,4.7,4.7h5.4L135.4,35.2z
					 M58,30.7c0.6-1.1,1.3-1.9,2.1-2.3c0.8-0.4,1.6-0.5,2.5-0.2c0.9,0.3,1.6,1,2.1,1.9c0.7,1.3,1,2.3,0.8,3
					c-0.2,0.7-0.7,1.2-1.4,1.5c-0.7,0.3-1.6,0.5-2.5,0.6c-0.9,0.1-1.8,0.1-2.5,0.1h-2C57.1,33.4,57.4,31.9,58,30.7z"/>
				<path id="XMLID_61_" class="st0" d="M33.3,35.2L33.3,35.2l0-11.7h6c1.5,0,2.5,0.2,3.1,0.7c0.6,0.5,0.9,1.5,0.9,2.9v2.1H48v-4.1
					c0-2.5-0.7-4.2-2.1-5.1c-1.4-0.9-3.6-1.3-6.4-1.3h-6.2h-0.1h-4.7v13.4c0,1.2-0.1,2-0.3,2.4c-0.2,0.4-0.7,0.6-1.6,0.6h-0.5
					l-10.2-0.1c-1.2,0-2.3-0.2-3.3-0.6c-1-0.4-1.8-1-2.5-1.6c-0.7-0.7-1.2-1.4-1.5-2.2s-0.5-1.6-0.3-2.4c0.1-1.1,0.8-2.2,1.9-3.2
					c1.2-1,3.1-1.5,5.8-1.5h4.2v-4.8h-4.2c-1.4,0-2.8,0.2-4.3,0.5c-1.5,0.3-2.8,0.9-4,1.7c-1.2,0.8-2.2,1.7-3,2.9
					c-0.8,1.2-1.2,2.6-1.3,4.3c-0.1,1.2,0.1,2.4,0.4,3.5c0.3,1.2,0.9,2.3,1.8,3.4c0,0,2.3,2.5,5.1,3.6c4.2,1.6,13.5,1.1,13.5,1.1
					h1.7h7.2V35.2z"/>
			</g>
		</g>
	</g>
</g>
</svg>
